{
	"asset":{
		"generator":"Khronos glTF Blender I/O v4.4.56",
		"version":"2.0"
	},
	"scene":0,
	"scenes":[
		{
			"name":"Scene",
			"nodes":[
				0
			]
		}
	],
	"nodes":[
		{
			"mesh":0,
			"name":"Sphere"
		}
	],
	"meshes":[
		{
			"name":"Sphere.006",
			"primitives":[
				{
					"attributes":{
						"POSITION":0,
						"NORMAL":1,
						"TEXCOORD_0":2
					},
					"indices":3
				}
			]
		}
	],
	"accessors":[
		{
			"bufferView":0,
			"componentType":5126,
			"count":65280,
			"max":[
				0.9999995827674866,
				1,
				0.9999992251396179
			],
			"min":[
				-0.9999986886978149,
				-1,
				-1
			],
			"type":"VEC3"
		},
		{
			"bufferView":1,
			"componentType":5126,
			"count":65280,
			"type":"VEC3"
		},
		{
			"bufferView":2,
			"componentType":5126,
			"count":65280,
			"type":"VEC2"
		},
		{
			"bufferView":3,
			"componentType":5123,
			"count":97536,
			"type":"SCALAR"
		}
	],
	"bufferViews":[
		{
			"buffer":0,
			"byteLength":783360,
			"byteOffset":0,
			"target":34962
		},
		{
			"buffer":0,
			"byteLength":783360,
			"byteOffset":783360,
			"target":34962
		},
		{
			"buffer":0,
			"byteLength":522240,
			"byteOffset":1566720,
			"target":34962
		},
		{
			"buffer":0,
			"byteLength":195072,
			"byteOffset":2088960,
			"target":34963
		}
	],
	"buffers":[
		{
			"byteLength":2284032,
			"uri":"sphere.bin"
		}
	]
}
